Coordinates
version=1
nRows=8
nColumns=40
inDegrees=yes

Units are S.I. units (second, meters, Newtons, ...)
Angles are in degrees.

endheader
time	pelvis_tilt	pelvis_list	pelvis_rotation	pelvis_tx	pelvis_ty	pelvis_tz	hip_flexion_r	hip_adduction_r	hip_rotation_r	knee_angle_r	knee_angle_r_beta	ankle_angle_r	subtalar_angle_r	mtp_angle_r	hip_flexion_l	hip_adduction_l	hip_rotation_l	knee_angle_l	knee_angle_l_beta	ankle_angle_l	subtalar_angle_l	mtp_angle_l	lumbar_extension	lumbar_bending	lumbar_rotation	arm_flex_r	arm_add_r	arm_rot_r	elbow_flex_r	pro_sup_r	wrist_flex_r	wrist_dev_r	arm_flex_l	arm_add_l	arm_rot_l	elbow_flex_l	pro_sup_l	wrist_flex_l	wrist_dev_l
     39.57000000	     -2.38535818	     -4.64969208	      1.17252541	      1.08708883	      0.93329184	      0.39874274	     27.99117110	     -7.20612186	     -3.98612645	     64.49935170	     64.49935170	      1.23673963	     -9.19355550	     -1.68776134	     15.55900855	     -5.13277551	     -7.82672314	     23.84116124	     23.84116124	     13.21588088	     -9.83640123	      0.86065470	    -10.80391790	      4.75352457	      1.47300214	      3.70017321	    -12.95746889	     -5.13571561	     27.87472122	     45.41264655	      0.00000000	      0.00000000	     17.92187521	    -17.80755007	     -6.04234274	     47.07332651	     45.18433316	      0.00000000	      0.00000000
     39.58314286	     -2.44474309	     -4.85458949	      0.96637861	      1.08589198	      0.93412114	      0.39831356	     28.71610714	     -7.08798583	     -4.29929640	     63.00268670	     63.00268670	      1.35086766	     -9.43233445	     -1.52925356	     14.94782193	     -5.30938183	     -8.00079637	     23.22400461	     23.22400461	     13.38404246	     -9.64973987	      0.88345110	    -10.73642467	      4.96618231	      1.05111131	      2.20410081	    -12.68257817	     -5.06190861	     27.28607034	     45.42446571	      0.00000000	      0.00000000	     18.89247798	    -18.49959359	     -6.28836037	     47.57823475	     45.23137720	      0.00000000	      0.00000000
     39.59628571	     -2.43259426	     -5.04723375	      0.66707022	      1.08468519	      0.93506694	      0.39803443	     29.25708727	     -6.82247027	     -4.42809513	     61.26608692	     61.26608692	      1.39632173	     -9.91451296	     -1.45854807	     14.24305217	     -5.52323869	     -8.37686082	     22.60260731	     22.60260731	     13.45408572	     -9.29937182	      0.71953377	    -10.89664541	      5.18145497	      1.33124624	      0.48831682	    -12.64423526	     -4.94973246	     26.59947939	     45.44453373	      0.00000000	      0.00000000	     19.99066517	    -18.69873042	     -6.62783217	     48.80584691	     45.31052529	      0.00000000	      0.00000000
     39.60942857	     -2.52817815	     -5.24729504	      0.42025583	      1.08354208	      0.93567188	      0.39775499	     29.81416603	     -6.62400751	     -4.73080746	     59.36781766	     59.36781766	      1.42875572	    -10.15797827	     -1.36036909	     13.72612756	     -5.73291735	     -8.67918037	     22.10053774	     22.10053774	     13.57516981	     -9.04671682	      0.47753344	    -10.84255005	      5.40974766	      1.20473765	     -1.08586782	    -12.50409489	     -4.90019978	     26.20712336	     45.45576402	      0.00000000	      0.00000000	     20.82410372	    -19.12655627	     -6.96634607	     49.87194290	     45.38280892	      0.00000000	      0.00000000
     39.62257143	     -2.63545050	     -5.40693550	      0.14534417	      1.08244812	      0.93623312	      0.39758212	     30.25951165	     -6.44062977	     -5.04662917	     57.21778059	     57.21778059	      1.48781378	    -10.29544774	     -1.16910268	     13.20504935	     -5.89192885	     -8.97170682	     21.57512734	     21.57512734	     13.67600858	     -8.84198316	      0.29210924	    -10.77269030	      5.60375451	      1.04255839	     -2.56695049	    -12.35863776	     -4.87453415	     25.87265357	     45.46371301	      0.00000000	      0.00000000	     21.59039899	    -19.60908856	     -7.29003710	     50.84784025	     45.44598128	      0.00000000	      0.00000000
     39.63571429	     -2.81662202	     -5.50978868	     -0.16435269	      1.08134749	      0.93653384	      0.39762119	     30.71012862	     -6.28020362	     -5.35317359	     54.86797149	     54.86797149	      1.59021677	    -10.24905891	     -0.92110976	     12.80332321	     -5.99884138	     -9.24632768	     21.12190520	     21.12190520	     13.80567914	     -8.73073141	      0.17609027	    -10.65501789	      5.69083727	      0.82094718	     -3.93077696	    -12.17395049	     -4.86160801	     25.52935522	     45.46940498	      0.00000000	      0.00000000	     22.34179696	    -20.26516938	     -7.59376136	     51.58111393	     45.49670038	      0.00000000	      0.00000000
     39.64885714	     -2.81483132	     -5.58912336	     -0.55893476	      1.08047136	      0.93707076	      0.39780802	     30.74043902	     -6.01829676	     -5.56372605	     52.05808921	     52.05808921	      1.45663105	    -10.29468564	     -1.36008976	     12.07096599	     -6.13207336	     -9.86545525	     20.45925887	     20.45925887	     13.52483635	     -8.37796617	     -1.08581457	    -10.84344405	      5.74727563	      0.92188646	     -5.68740728	    -12.18322795	     -4.95930353	     26.53368315	     45.46754137	      0.00000000	      0.00000000	     22.39375142	    -20.46974693	     -8.58232553	     54.50486234	     45.70067488	      0.00000000	      0.00000000
     39.66200000	     -2.94519309	     -5.63023982	     -0.92241833	      1.07955414	      0.93735890	      0.39812000	     30.80872047	     -5.80107483	     -5.86744380	     49.03186840	     49.03186840	      1.58482507	     -9.91106254	     -1.08478983	     11.55144175	     -6.16580864	    -10.16113251	     19.91781979	     19.91781979	     13.61113215	     -8.33420619	     -1.13713661	    -10.77137781	      5.77849021	      0.80286551	     -6.77394319	    -12.10411431	     -4.92159883	     26.23903982	     45.47538984	      0.00000000	      0.00000000	     23.01401440	    -20.90367600	     -8.83678725	     55.11285710	     45.74832696	      0.00000000	      0.00000000
